<mxfile host="app.diagrams.net" modified="2021-06-05T09:12:26.102Z" agent="5.0 (Windows NT 10.0; Win64; x64) AppleWebKit/537.36 (KHTML, like Gecko) Chrome/88.0.4324.182 Safari/537.36" etag="icAI0r0zrqq_n0FyJP7i" version="14.7.6" type="github">
  <diagram id="J3wfi3oiYImKIwbZFj6j" name="Page-1">
    <mxGraphModel dx="1227" dy="745" grid="1" gridSize="10" guides="1" tooltips="1" connect="1" arrows="1" fold="1" page="1" pageScale="1" pageWidth="3300" pageHeight="4681" math="0" shadow="0">
      <root>
        <mxCell id="0" />
        <mxCell id="1" parent="0" />
        <mxCell id="l3AE67A5KRNvc_305HST-3" value="" style="edgeStyle=orthogonalEdgeStyle;rounded=0;orthogonalLoop=1;jettySize=auto;html=1;" edge="1" parent="1" source="l3AE67A5KRNvc_305HST-1" target="l3AE67A5KRNvc_305HST-2">
          <mxGeometry relative="1" as="geometry" />
        </mxCell>
        <mxCell id="l3AE67A5KRNvc_305HST-1" value="FUNCTION input_dataclients()" style="shape=process;whiteSpace=wrap;html=1;backgroundOutline=1;" vertex="1" parent="1">
          <mxGeometry x="320" y="80" width="290" height="60" as="geometry" />
        </mxCell>
        <mxCell id="l3AE67A5KRNvc_305HST-5" value="" style="edgeStyle=orthogonalEdgeStyle;rounded=0;orthogonalLoop=1;jettySize=auto;html=1;" edge="1" parent="1" source="l3AE67A5KRNvc_305HST-2" target="l3AE67A5KRNvc_305HST-4">
          <mxGeometry relative="1" as="geometry" />
        </mxCell>
        <mxCell id="l3AE67A5KRNvc_305HST-2" value="DECLARE data = []" style="rounded=1;whiteSpace=wrap;html=1;" vertex="1" parent="1">
          <mxGeometry x="350" y="210" width="230" height="40" as="geometry" />
        </mxCell>
        <mxCell id="l3AE67A5KRNvc_305HST-7" value="" style="edgeStyle=orthogonalEdgeStyle;rounded=0;orthogonalLoop=1;jettySize=auto;html=1;exitX=0.504;exitY=0.863;exitDx=0;exitDy=0;exitPerimeter=0;" edge="1" parent="1" source="l3AE67A5KRNvc_305HST-4" target="l3AE67A5KRNvc_305HST-6">
          <mxGeometry relative="1" as="geometry" />
        </mxCell>
        <mxCell id="l3AE67A5KRNvc_305HST-4" value="&lt;span&gt;READ data FROM ./data/clients.txt&lt;/span&gt;" style="shape=document;whiteSpace=wrap;html=1;boundedLbl=1;size=0.25;" vertex="1" parent="1">
          <mxGeometry x="346.25" y="310" width="237.5" height="80" as="geometry" />
        </mxCell>
        <mxCell id="l3AE67A5KRNvc_305HST-6" value="RETURN data" style="ellipse;whiteSpace=wrap;html=1;" vertex="1" parent="1">
          <mxGeometry x="421" y="440" width="90" height="80" as="geometry" />
        </mxCell>
      </root>
    </mxGraphModel>
  </diagram>
</mxfile>
